# xmcd
#
# Track frame offsets:
#	150
#	17131
#	34773
#	54603
#	69876
#	83289
#	104421
#	121905
#	138997
#	157011
#	177273
#	192839
#	209531
#	226403
#	241447
#	259929
#	281276
#	301850
#	331194
#
# Disc length: 4671 seconds
#
# Revision: 1
# Processed by: cddbd v1.5.2PL0 Copyright (c) Steve Scherf et al.
# Submitted via: EasyCDDAExtractor 15.3.0.1
#
DISCID=fe123d13
DTITLE=Rocio Jurado - Ellas Cantan Asi
DYEAR=2003
DGENRE=Latin
TTITLE0=Lo Siento Mi Amor
TTITLE1=Por Que Me Habras Besado
TTITLE2=Señora
TTITLE3=A Pesar De Todo
TTITLE4=Pa' Que Sientas Lo Que Siento
TTITLE5=Como Yo Te Amo
TTITLE6=Cria Cuervos
TTITLE7=Cuentale
TTITLE8=Mi Amante Amigo
TTITLE9=Ese Hombre
TTITLE10=Lo Vas A Conseguir
TTITLE11=Me Hubiera Gustado Tanto
TTITLE12=Muera El Amor
TTITLE13=Ya No Te Sientas Solo Y Triste
TTITLE14=Paloma Negra
TTITLE15=Si Amanece
TTITLE16=Quisiera Morir Contigo
TTITLE17=Y Sin Embargo Te Quiero
TTITLE18=Como Una Ola
EXTD=
EXTT0=
EXTT1=
EXTT2=
EXTT3=
EXTT4=
EXTT5=
EXTT6=
EXTT7=
EXTT8=
EXTT9=
EXTT10=
EXTT11=
EXTT12=
EXTT13=
EXTT14=
EXTT15=
EXTT16=
EXTT17=
EXTT18=
PLAYORDER=
